<svg width="1472" height="246" viewBox="0 0 1472 246" fill="none" xmlns="http://www.w3.org/2000/svg">
<path d="M1236.34 122.915C1236.34 189.857 1289.21 242.404 1355.51 242.404C1421.8 242.404 1475 189.867 1475 122.915C1475 55.6372 1421.8 3.42651 1355.51 3.42651C1289.22 3.42651 1236.34 55.648 1236.34 122.915ZM1424.84 122.915C1424.84 164.133 1394.51 193.2 1355.51 193.2C1316.52 193.2 1286.19 164.133 1286.19 122.915C1286.19 81.3687 1316.53 52.3097 1355.51 52.3097C1394.5 52.3097 1424.84 81.3687 1424.84 122.915Z" stroke="#86DDD1" stroke-width="6"/>
<path d="M1211.94 10.9069V7.90686H1208.94H1044.13H1041.13V10.9069V53.15V56.15H1044.13H1101.29V234.923V237.923H1104.29H1148.46H1151.46V234.923V56.15H1208.94H1211.94V53.15V10.9069Z" stroke="#86DDD1" stroke-width="6"/>
<path d="M895.03 192.68V189.68H892.03H800.623V145.436H882.43H885.43V142.436V100.833V97.8334H882.43H800.623V56.15H890.43H893.43V53.15V10.9069V7.90686H890.43H753.46H750.46V10.9069V234.923V237.923H753.46H892.03H895.03V234.923V192.68Z" stroke="#86DDD1" stroke-width="6"/>
<path d="M702.821 237.923H708.808L705.224 233.128L620.493 119.732L702.008 12.7248L705.678 7.90686H699.621H648.737H647.269L646.368 9.06663L574.932 101.041V10.9069V7.90686H571.932H527.768H524.768V10.9069V234.923V237.923H527.768H571.932H574.932V234.923V138.841L649.552 236.742L650.452 237.923H651.938H702.821Z" stroke="#86DDD1" stroke-width="6"/>
<path d="M413.335 7.90686H410.335V10.9069V234.923V237.923H413.335H457.499H460.499V234.923V10.9069V7.90686H457.499H413.335Z" stroke="#86DDD1" stroke-width="6"/>
<path d="M362.444 192.68V189.68H359.444H276.997V10.9069V7.90686H273.997H229.834H226.834V10.9069V234.923V237.923H229.834H359.444H362.444V234.923V192.68Z" stroke="#86DDD1" stroke-width="6"/>
<path d="M6.59279 7.90686H3.59279V10.9069V234.923V237.923H6.59279H50.756H53.756V234.923V10.9069V7.90686H50.756H6.59279Z" stroke="#86DDD1" stroke-width="6"/>
</svg>
